<svg width="25" height="25" viewBox="0 0 25 25" fill="none" xmlns="http://www.w3.org/2000/svg">
<path fill-rule="evenodd" clip-rule="evenodd" d="M1.64163 12.4735C1.64163 12.2746 1.72065 12.0838 1.8613 11.9431C2.00196 11.8025 2.19272 11.7235 2.39163 11.7235H20.0811L15.3606 7.00447C15.2909 6.93473 15.2356 6.85195 15.1978 6.76084C15.1601 6.66973 15.1407 6.57208 15.1407 6.47347C15.1407 6.37485 15.1601 6.2772 15.1978 6.18609C15.2356 6.09498 15.2909 6.0122 15.3606 5.94247C15.4304 5.87273 15.5131 5.81742 15.6043 5.77968C15.6954 5.74194 15.793 5.72252 15.8916 5.72252C15.9903 5.72252 16.0879 5.74194 16.179 5.77968C16.2701 5.81742 16.3529 5.87273 16.4226 5.94247L22.4226 11.9425C22.4925 12.0121 22.5479 12.0949 22.5857 12.186C22.6235 12.2771 22.643 12.3748 22.643 12.4735C22.643 12.5721 22.6235 12.6698 22.5857 12.7609C22.5479 12.852 22.4925 12.9348 22.4226 13.0045L16.4226 19.0045C16.3529 19.0742 16.2701 19.1295 16.179 19.1673C16.0879 19.205 15.9903 19.2244 15.8916 19.2244C15.793 19.2244 15.6954 19.205 15.6043 19.1673C15.5131 19.1295 15.4304 19.0742 15.3606 19.0045C15.2909 18.9347 15.2356 18.852 15.1978 18.7608C15.1601 18.6697 15.1407 18.5721 15.1407 18.4735C15.1407 18.3749 15.1601 18.2772 15.1978 18.1861C15.2356 18.095 15.2909 18.0122 15.3606 17.9425L20.0811 13.2235H2.39163C2.19272 13.2235 2.00196 13.1444 1.8613 13.0038C1.72065 12.8631 1.64163 12.6724 1.64163 12.4735Z" fill="#404C99"/>
</svg>
